<mxfile host="app.diagrams.net" modified="2022-08-15T08:20:36.303Z" agent="5.0 (Windows NT 10.0; Win64; x64) AppleWebKit/537.36 (KHTML, like Gecko) Chrome/103.0.0.0 Safari/537.36" etag="eI2Old-bneANdulO05mT" version="20.2.2" type="github">
  <diagram id="fpa_w3nfQHwVPm8lzAJ2" name="第 1 页">
    <mxGraphModel dx="813" dy="435" grid="1" gridSize="10" guides="1" tooltips="1" connect="1" arrows="1" fold="1" page="1" pageScale="1" pageWidth="827" pageHeight="1169" math="0" shadow="0">
      <root>
        <mxCell id="0" />
        <mxCell id="1" parent="0" />
        <mxCell id="isIyfuc2rhLOlFaG4fwx-18" value="" style="rounded=0;whiteSpace=wrap;html=1;" vertex="1" parent="1">
          <mxGeometry x="160" y="70" width="560" height="310" as="geometry" />
        </mxCell>
        <mxCell id="isIyfuc2rhLOlFaG4fwx-11" style="edgeStyle=orthogonalEdgeStyle;rounded=0;orthogonalLoop=1;jettySize=auto;html=1;entryX=0;entryY=0.5;entryDx=0;entryDy=0;fillColor=#b0e3e6;strokeColor=#0e8088;" edge="1" parent="1" source="isIyfuc2rhLOlFaG4fwx-1" target="isIyfuc2rhLOlFaG4fwx-3">
          <mxGeometry relative="1" as="geometry" />
        </mxCell>
        <mxCell id="isIyfuc2rhLOlFaG4fwx-1" value="accept4" style="rounded=0;whiteSpace=wrap;html=1;fontStyle=1;fillColor=#b0e3e6;strokeColor=#0e8088;" vertex="1" parent="1">
          <mxGeometry x="180" y="160" width="120" height="40" as="geometry" />
        </mxCell>
        <mxCell id="isIyfuc2rhLOlFaG4fwx-12" style="edgeStyle=orthogonalEdgeStyle;rounded=0;orthogonalLoop=1;jettySize=auto;html=1;exitX=0.5;exitY=1;exitDx=0;exitDy=0;entryX=0.5;entryY=0;entryDx=0;entryDy=0;fillColor=#b0e3e6;strokeColor=#0e8088;" edge="1" parent="1" source="isIyfuc2rhLOlFaG4fwx-3" target="isIyfuc2rhLOlFaG4fwx-4">
          <mxGeometry relative="1" as="geometry" />
        </mxCell>
        <mxCell id="isIyfuc2rhLOlFaG4fwx-3" value="read" style="rounded=0;whiteSpace=wrap;html=1;fontStyle=1;fillColor=#b0e3e6;strokeColor=#0e8088;" vertex="1" parent="1">
          <mxGeometry x="480" y="160" width="120" height="40" as="geometry" />
        </mxCell>
        <mxCell id="isIyfuc2rhLOlFaG4fwx-13" style="edgeStyle=orthogonalEdgeStyle;rounded=0;orthogonalLoop=1;jettySize=auto;html=1;exitX=0.5;exitY=1;exitDx=0;exitDy=0;entryX=0.5;entryY=0;entryDx=0;entryDy=0;fillColor=#b0e3e6;strokeColor=#0e8088;" edge="1" parent="1" source="isIyfuc2rhLOlFaG4fwx-4" target="isIyfuc2rhLOlFaG4fwx-5">
          <mxGeometry relative="1" as="geometry" />
        </mxCell>
        <mxCell id="isIyfuc2rhLOlFaG4fwx-4" value="write" style="rounded=0;whiteSpace=wrap;html=1;fontStyle=1;fillColor=#b0e3e6;strokeColor=#0e8088;" vertex="1" parent="1">
          <mxGeometry x="480" y="240" width="120" height="40" as="geometry" />
        </mxCell>
        <mxCell id="isIyfuc2rhLOlFaG4fwx-5" value="close" style="rounded=0;whiteSpace=wrap;html=1;fontStyle=1;fillColor=#b0e3e6;strokeColor=#0e8088;" vertex="1" parent="1">
          <mxGeometry x="480" y="320" width="120" height="40" as="geometry" />
        </mxCell>
        <mxCell id="isIyfuc2rhLOlFaG4fwx-15" value="" style="curved=1;endArrow=classic;html=1;rounded=0;exitX=0.583;exitY=0;exitDx=0;exitDy=0;entryX=1;entryY=0.5;entryDx=0;entryDy=0;exitPerimeter=0;fillColor=#b0e3e6;strokeColor=#0e8088;" edge="1" parent="1" source="isIyfuc2rhLOlFaG4fwx-3" target="isIyfuc2rhLOlFaG4fwx-3">
          <mxGeometry width="50" height="50" relative="1" as="geometry">
            <mxPoint x="350" y="320" as="sourcePoint" />
            <mxPoint x="400" y="270" as="targetPoint" />
            <Array as="points">
              <mxPoint x="580" y="120" />
              <mxPoint x="630" y="150" />
            </Array>
          </mxGeometry>
        </mxCell>
        <mxCell id="isIyfuc2rhLOlFaG4fwx-17" value="" style="curved=1;endArrow=classic;html=1;rounded=0;fillColor=#b0e3e6;strokeColor=#0e8088;" edge="1" parent="1">
          <mxGeometry width="50" height="50" relative="1" as="geometry">
            <mxPoint x="550" y="240" as="sourcePoint" />
            <mxPoint x="600" y="260" as="targetPoint" />
            <Array as="points">
              <mxPoint x="580.04" y="200" />
              <mxPoint x="630.04" y="230" />
            </Array>
          </mxGeometry>
        </mxCell>
        <mxCell id="isIyfuc2rhLOlFaG4fwx-19" value="新连接传入时&lt;br&gt;创建文件描述符" style="text;strokeColor=none;fillColor=none;align=left;verticalAlign=middle;whiteSpace=wrap;rounded=0;fontSize=12;fontFamily=Helvetica;html=1;" vertex="1" parent="1">
          <mxGeometry x="310" y="190" width="160" height="30" as="geometry" />
        </mxCell>
        <mxCell id="isIyfuc2rhLOlFaG4fwx-20" value="有新数据时&lt;br&gt;读取文件描述符" style="text;strokeColor=none;fillColor=none;align=left;verticalAlign=middle;whiteSpace=wrap;rounded=0;fontSize=12;fontFamily=Helvetica;html=1;" vertex="1" parent="1">
          <mxGeometry x="610" y="90" width="90" height="40" as="geometry" />
        </mxCell>
        <mxCell id="isIyfuc2rhLOlFaG4fwx-21" value="将输出数据&lt;br&gt;写入文件描述符" style="text;strokeColor=none;fillColor=none;align=left;verticalAlign=middle;whiteSpace=wrap;rounded=0;fontSize=12;fontFamily=Helvetica;html=1;" vertex="1" parent="1">
          <mxGeometry x="610" y="190" width="90" height="40" as="geometry" />
        </mxCell>
        <mxCell id="isIyfuc2rhLOlFaG4fwx-22" value="关闭连接" style="text;strokeColor=none;fillColor=none;align=left;verticalAlign=middle;whiteSpace=wrap;rounded=0;fontSize=12;fontFamily=Helvetica;html=1;" vertex="1" parent="1">
          <mxGeometry x="550" y="290" width="60" height="20" as="geometry" />
        </mxCell>
      </root>
    </mxGraphModel>
  </diagram>
</mxfile>
